<svg xmlns="http://www.w3.org/2000/svg" width="200" height="200" viewBox="0 0 200 200" fill="none">
  <!-- Desk/Table -->
  <rect x="50" y="80" width="100" height="10" fill="#e2e8f0" rx="2" />
  <rect x="55" y="90" width="5" height="50" fill="#cbd5e1" rx="1" />
  <rect x="140" y="90" width="5" height="50" fill="#cbd5e1" rx="1" />
  
  <!-- Monitor -->
  <rect x="70" y="40" width="60" height="40" rx="4" fill="#94a3b8" />
  <rect x="95" y="80" width="10" height="10" fill="#64748b" />
  <circle cx="100" cy="60" r="8" fill="#e2e8f0" opacity="0.5" />
  
  <!-- Person hiding under desk -->
  <path d="M100 140c-15 0-25-10-25-25 0-10 8-15 15-18 5-2 15-2 20 0 7 3 15 8 15 18s-10 25-25 25z" fill="#fca5a5" /> <!-- Body/Head simplified -->
  <circle cx="100" cy="115" r="8" fill="#1e293b" /> <!-- Hair -->
  <path d="M90 125q10 5 20 0" stroke="#000" stroke-width="1" fill="none" /> <!-- Sad mouth -->
  
  <!-- Floating papers / frustration symbols -->
  <path d="M150 50l10-10m-5 15l10-5" stroke="#94a3b8" stroke-width="2" />
  <path d="M40 50l-10-10m5 15l-10-5" stroke="#94a3b8" stroke-width="2" />
  
  <!-- Text Placeholder if real SVG not provided -->
  <text x="50%" y="180" text-anchor="middle" fill="#94a3b8" font-family="sans-serif" font-size="12">No Data Found</text>
</svg>
